<svg width="256" height="256" viewBox="0 0 256 256" xmlns="http://www.w3.org/2000/svg" role="img" aria-labelledby="heimdallLogoTitle">
  <title id="heimdallLogoTitle">Heimdall Gatekeeper logo</title>
  <defs>
    <linearGradient id="logoGrad" x1="0%" y1="0%" x2="100%" y2="100%">
      <stop offset="0%" stop-color="#22c55e" />
      <stop offset="100%" stop-color="#0ea5e9" />
    </linearGradient>
    <linearGradient id="shieldGrad" x1="0%" y1="0%" x2="100%" y2="100%">
      <stop offset="0%" stop-color="#334155" />
      <stop offset="100%" stop-color="#0f172a" />
    </linearGradient>
  </defs>
  <rect width="256" height="256" rx="48" fill="#020617" />
  <path d="M128 48C93.3 48 64 72.9 64 104c0 58.4 44.6 89.2 61.8 98.6a12 12 0 0 0 10.4 0C147.4 193.2 192 162.4 192 104c0-31.1-29.3-56-64-56Z" fill="url(#shieldGrad)" stroke="url(#logoGrad)" stroke-width="16" />
  <path d="M96 104v-24c0-8.8 7.2-16 16-16h32c8.8 0 16 7.2 16 16v24" fill="none" stroke="#fff" stroke-width="16" stroke-linecap="round" stroke-linejoin="round" />
  <path d="M96 144v-24c0-8.8 7.2-16 16-16h32c8.8 0 16 7.2 16 16v24" fill="none" stroke="#fff" stroke-width="16" stroke-linecap="round" stroke-linejoin="round" opacity="0.55" />
  <path d="M112 112h32" stroke="#f8fafc" stroke-width="14" stroke-linecap="round" />
  <circle cx="128" cy="72" r="10" fill="#fff" opacity="0.9" />
</svg>
