<svg width="256" height="256" viewBox="0 0 256 256" xmlns="http://www.w3.org/2000/svg" role="img" aria-labelledby="heimdallLogoTitle">
  <title id="heimdallLogoTitle">Heimdall Gatekeeper logo</title>
  <defs>
    <linearGradient id="shieldGradient" x1="0%" y1="0%" x2="100%" y2="100%">
      <stop offset="0%" stop-color="#0f172a" />
      <stop offset="100%" stop-color="#1e293b" />
    </linearGradient>
    <linearGradient id="runeGradient" x1="0%" y1="0%" x2="100%" y2="100%">
      <stop offset="0%" stop-color="#7dd3fc" />
      <stop offset="100%" stop-color="#22c55e" />
    </linearGradient>
    <linearGradient id="rimGradient" x1="0%" y1="0%" x2="100%" y2="100%">
      <stop offset="0%" stop-color="#1e293b" />
      <stop offset="100%" stop-color="#334155" />
    </linearGradient>
  </defs>
  <rect width="256" height="256" rx="40" fill="#020617" />
  <path d="M128 34c-52 0-94 42-94 94 0 52 42 94 94 94s94-42 94-94c0-52-42-94-94-94Zm0 16c43 0 78 35 78 78 0 43-35 78-78 78s-78-35-78-78c0-43 35-78 78-78Z" fill="url(#rimGradient)" />
  <path d="M94 76l18 40 24-8 20 40-20 46-28-14-12-30-18 18" fill="none" stroke="url(#runeGradient)" stroke-width="16" stroke-linecap="round" stroke-linejoin="round" />
  <path d="M162 90l-24 18-24-18M132 118l26 18" fill="none" stroke="url(#runeGradient)" stroke-width="14" stroke-linecap="round" />
  <path d="M100 154h56" fill="none" stroke="#c5a56d" stroke-width="10" stroke-linecap="round" />
  <path d="M96 88l24 64 24-68" fill="none" stroke="#7dd3fc" stroke-width="10" stroke-linecap="round" stroke-linejoin="round" opacity="0.75" />
  <circle cx="128" cy="110" r="8" fill="#f8fafc" opacity="0.95" />
  <path d="M64 128h24M168 128h24" stroke="#7dd3fc" stroke-width="8" stroke-linecap="round" opacity="0.85" />
</svg>
